<svg viewBox="0 0 61 32" fill="none" xmlns="http://www.w3.org/2000/svg">
  <!-- a -->
  <path d="M9.56909 30.78C7.74251 30.78 6.10677 30.30 4.66187 29.33C3.24422 28.34 2.11283 26.99 1.2677 25.28C0.422567 23.55 0 21.59 0 19.41C0 17.18 0.422567 15.21 1.2677 13.50C2.11283 11.79 3.27148 10.45 4.74365 9.49C6.21582 8.50 7.89246 8.00 9.77356 8.00C10.8095 8.00 11.7501 8.15 12.5952 8.45C13.4676 8.76 14.231 9.19 14.8853 9.74C15.5396 10.26 16.0984 10.88 16.5619 11.60C17.0254 12.29 17.3661 13.03 17.5842 13.83L16.2347 13.66V8.45H22.7368L22.6666 30.73L16.3165 30.78L16.1121 25.12L17.5842 25.08C17.3661 25.85 17.0117 26.58 16.521 27.27C16.0303 27.96 15.4305 28.56 14.7217 29.09C14.0129 29.61 13.2223 30.02 12.3499 30.33C11.4775 30.63 10.5505 30.78 9.56909 30.78ZM11.3684 25.20C12.3771 25.20 13.2495 24.97 13.9856 24.50C14.7217 24.03 15.2942 23.37 15.7031 22.51C16.1121 21.63 16.3165 20.60 16.3165 19.41C16.3165 18.23 16.1121 17.21 15.7031 16.35C15.2942 15.47 14.7217 14.79 13.9856 14.33C13.2495 13.83 12.3771 13.58 11.3684 13.58C10.387 13.58 9.5282 13.83 8.79212 14.33C8.08329 14.79 7.52442 15.47 7.11548 16.35C6.70654 17.21 6.50208 18.23 6.50208 19.41C6.50208 20.60 6.70654 21.63 7.11548 22.51C7.52442 23.37 8.08329 24.03 8.79212 24.50C9.5282 24.97 10.387 25.20 11.3684 25.20Z" fill="white"/>
  <!-- r -->
  <path d="M36.28 8.00C36.75 8.00 36.62 8.00 36.97 8.07V15.82C36.68 15.64 36.28 15.49 35.79 15.38C35.30 15.24 34.78 15.17 34.23 15.17C33.63 15.17 33.07 15.28 32.55 15.51C32.03 15.70 31.60 16.00 31.24 16.39C30.89 16.78 30.60 17.24 30.38 17.77C30.19 18.31 30.09 18.91 30.09 19.58V30.74H23.50V8.46H29.72L29.86 11.85C30.02 11.59 30.19 11.34 30.38 11.10C31.15 10.15 32.03 9.40 33.04 8.84C34.05 8.28 35.13 8.00 36.28 8.00Z" fill="white"/>
  <!-- k -->
  <path d="M44.48 24.59L42.00 19.54L52.44 8.80H61.33L44.48 24.59ZM38.00 31.16V0H44.74V31.16H38.00ZM53.16 31.16L45.28 20.97L50.04 17.26L61.12 31.16H53.16Z" fill="white"/>
</svg>
