<svg preserveAspectRatio="none" width="100%" height="100%" overflow="visible" style="display: block;" viewBox="0 0 13.4737 22.7368" fill="none" xmlns="http://www.w3.org/2000/svg">
<path id="Subtract" d="M12.777 4.15335e-07C13.2513 4.15335e-07 13.1157 -0.000851126 13.4737 0.0745608V7.81901C13.1774 7.63547 12.7816 7.49003 12.2859 7.38312C11.7945 7.24328 11.2754 7.17337 10.7294 7.17337C10.1288 7.17341 9.5691 7.28478 9.05045 7.50848C8.53174 7.70425 8.09519 7.99857 7.74028 8.39009C7.38545 8.78156 7.0988 9.24274 6.88042 9.77397C6.68931 10.3053 6.59327 10.907 6.59327 11.5782V22.7368H0V0.461292H6.22453L6.35811 3.85174C6.51878 3.59427 6.69339 3.34494 6.88042 3.10368C7.64482 2.15295 8.5323 1.39829 9.54237 0.83901C10.5524 0.279751 11.6305 5.24852e-05 12.777 4.15335e-07Z" fill="var(--fill-0, white)"/>
</svg>
