<svg preserveAspectRatio="none" width="100%" height="100%" overflow="visible" style="display: block;" viewBox="0 0 148.5 148.791" fill="none" xmlns="http://www.w3.org/2000/svg">
<path id="a" d="M62.4981 148.791C50.5683 148.791 39.8849 145.641 30.4478 139.34C21.1888 132.859 13.7994 124.038 8.27967 112.876C2.75989 101.535 0 88.7528 0 74.5307C0 59.9486 2.75989 47.0768 8.27967 35.9152C13.7994 24.7536 21.3669 16.0223 30.982 9.7214C40.5971 3.24047 51.5476 0 63.8336 0C70.5998 0 76.7427 0.990146 82.2625 2.97044C87.9603 4.95072 92.946 7.74112 97.2193 11.3416C101.493 14.7621 105.143 18.8127 108.17 23.4934C111.197 27.994 113.423 32.8547 114.847 38.0755L106.033 36.9953V2.97044H148.5L148.041 148.464L106.567 148.791L105.232 111.796L114.847 111.526C113.423 116.567 111.108 121.337 107.903 125.838C104.698 130.339 100.78 134.299 96.151 137.72C91.5215 141.14 86.3578 143.841 80.66 145.821C74.9622 147.801 68.9082 148.791 62.4981 148.791ZM74.2499 112.336C80.838 112.336 86.5359 110.806 91.3434 107.745C96.151 104.685 99.8902 100.364 102.561 94.7836C105.232 89.0228 106.567 82.2718 106.567 74.5307C106.567 66.7896 105.232 60.1286 102.561 54.5478C99.8902 48.787 96.151 44.3764 91.3434 41.3159C86.5359 38.0755 80.838 36.4553 74.2499 36.4553C67.8399 36.4553 62.2311 38.0755 57.4235 41.3159C52.794 44.3764 49.1438 48.787 46.473 54.5478C43.8021 60.1286 42.4667 66.7896 42.4667 74.5307C42.4667 82.2718 43.8021 89.0228 46.473 94.7836C49.1438 100.364 52.794 104.685 57.4235 107.745C62.2311 110.806 67.8399 112.336 74.2499 112.336Z" fill="var(--fill-0, white)"/>
</svg>
