<svg preserveAspectRatio="none" width="100%" height="100%" overflow="visible" style="display: block;" viewBox="0 0 22.7368 22.7815" fill="none" xmlns="http://www.w3.org/2000/svg">
<path id="a" d="M9.56909 22.7815C7.74251 22.7815 6.10677 22.2991 4.66187 21.3344C3.24422 20.3421 2.11283 18.9914 1.2677 17.2825C0.422567 15.546 0 13.5889 0 11.4114C0 9.17874 0.422567 7.20793 1.2677 5.49897C2.11283 3.79002 3.27148 2.45318 4.74365 1.48844C6.21582 0.496148 7.89246 0 9.77356 0C10.8095 0 11.7501 0.151601 12.5952 0.454804C13.4676 0.758005 14.231 1.18524 14.8853 1.73652C15.5396 2.26023 16.0984 2.88042 16.5619 3.59707C17.0254 4.28617 17.3661 5.03039 17.5842 5.82974L16.2347 5.66436V0.454804H22.7368L22.6666 22.7313L16.3165 22.7815L16.1121 17.1171L17.5842 17.0758C17.3661 17.8475 17.0117 18.578 16.521 19.2671C16.0303 19.9562 15.4305 20.5626 14.7217 21.0863C14.0129 21.61 13.2223 22.0235 12.3499 22.3267C11.4775 22.6299 10.5505 22.7815 9.56909 22.7815ZM11.3684 17.1998C12.3771 17.1998 13.2495 16.9655 13.9856 16.4969C14.7217 16.0283 15.2942 15.3668 15.7031 14.5123C16.1121 13.6303 16.3165 12.5966 16.3165 11.4114C16.3165 10.2262 16.1121 9.2063 15.7031 8.35182C15.2942 7.46978 14.7217 6.79447 13.9856 6.32589C13.2495 5.82974 12.3771 5.58167 11.3684 5.58167C10.387 5.58167 9.5282 5.82974 8.79212 6.32589C8.08329 6.79447 7.52442 7.46978 7.11548 8.35182C6.70654 9.2063 6.50208 10.2262 6.50208 11.4114C6.50208 12.5966 6.70654 13.6303 7.11548 14.5123C7.52442 15.3668 8.08329 16.0283 8.79212 16.4969C9.5282 16.9655 10.387 17.1998 11.3684 17.1998Z" fill="var(--fill-0, white)"/>
</svg>
