<svg preserveAspectRatio="none" width="100%" height="100%" overflow="visible" style="display: block;" viewBox="0 0 53 53" fill="none" xmlns="http://www.w3.org/2000/svg">
<g id="insta button">
<circle id="Ellipse 216" cx="26.5" cy="26.5" r="26.5" fill="var(--fill-0, #212123)"/>
<path id="Vector" d="M21.67 15H31.33C35.01 15 38 17.99 38 21.67V31.33C38 33.099 37.2973 34.7955 36.0464 36.0464C34.7955 37.2973 33.099 38 31.33 38H21.67C17.99 38 15 35.01 15 31.33V21.67C15 19.901 15.7027 18.2045 16.9536 16.9536C18.2045 15.7027 19.901 15 21.67 15ZM21.44 17.3C20.342 17.3 19.289 17.7362 18.5126 18.5126C17.7362 19.289 17.3 20.342 17.3 21.44V31.56C17.3 33.8485 19.1515 35.7 21.44 35.7H31.56C32.658 35.7 33.711 35.2638 34.4874 34.4874C35.2638 33.711 35.7 32.658 35.7 31.56V21.44C35.7 19.1515 33.8485 17.3 31.56 17.3H21.44ZM32.5375 19.025C32.9187 19.025 33.2844 19.1765 33.554 19.446C33.8236 19.7156 33.975 20.0813 33.975 20.4625C33.975 20.8437 33.8236 21.2094 33.554 21.479C33.2844 21.7485 32.9187 21.9 32.5375 21.9C32.1563 21.9 31.7906 21.7485 31.521 21.479C31.2514 21.2094 31.1 20.8437 31.1 20.4625C31.1 20.0813 31.2514 19.7156 31.521 19.446C31.7906 19.1765 32.1563 19.025 32.5375 19.025ZM26.5 20.75C28.025 20.75 29.4875 21.3558 30.5659 22.4341C31.6442 23.5125 32.25 24.975 32.25 26.5C32.25 28.025 31.6442 29.4875 30.5659 30.5659C29.4875 31.6442 28.025 32.25 26.5 32.25C24.975 32.25 23.5125 31.6442 22.4341 30.5659C21.3558 29.4875 20.75 28.025 20.75 26.5C20.75 24.975 21.3558 23.5125 22.4341 22.4341C23.5125 21.3558 24.975 20.75 26.5 20.75ZM26.5 23.05C25.585 23.05 24.7075 23.4135 24.0605 24.0605C23.4135 24.7075 23.05 25.585 23.05 26.5C23.05 27.415 23.4135 28.2925 24.0605 28.9395C24.7075 29.5865 25.585 29.95 26.5 29.95C27.415 29.95 28.2925 29.5865 28.9395 28.9395C29.5865 28.2925 29.95 27.415 29.95 26.5C29.95 25.585 29.5865 24.7075 28.9395 24.0605C28.2925 23.4135 27.415 23.05 26.5 23.05Z" fill="var(--fill-0, white)"/>
</g>
</svg>
