<svg preserveAspectRatio="none" width="100%" height="100%" overflow="visible" style="display: block;" viewBox="0 0 53 53" fill="none" xmlns="http://www.w3.org/2000/svg">
<g id="linkedin button">
<circle id="Ellipse 216" cx="26.5" cy="26.5" r="26.5" fill="var(--fill-0, #212123)"/>
<path id="Vector" d="M34.596 33.5998H31.1907V28.2626C31.1907 26.9899 31.1652 25.3518 29.4146 25.3518C27.6398 25.3518 27.3689 26.7369 27.3689 28.1693V33.5998H23.9623V22.625H27.2334V24.12H27.2782C27.7356 23.2588 28.8473 22.3477 30.5084 22.3477C33.9584 22.3477 34.5973 24.6196 34.5973 27.5764L34.596 33.5998ZM20.1162 21.1236C19.8563 21.1239 19.5988 21.073 19.3586 20.9736C19.1184 20.8742 18.9001 20.7284 18.7164 20.5446C18.5326 20.3607 18.3869 20.1424 18.2877 19.9021C18.1885 19.6618 18.1377 19.4043 18.1382 19.1443C18.1385 18.7531 18.2547 18.3708 18.4723 18.0456C18.6898 17.7205 18.9989 17.4672 19.3605 17.3177C19.722 17.1682 20.1197 17.1293 20.5034 17.2059C20.887 17.2824 21.2393 17.4711 21.5158 17.7479C21.7922 18.0247 21.9804 18.3772 22.0565 18.761C22.1325 19.1447 22.0931 19.5424 21.9432 19.9037C21.7932 20.2651 21.5395 20.5738 21.2141 20.791C20.8887 21.0081 20.5062 21.1239 20.1149 21.1236M21.8221 33.5998H18.4078V22.625H21.8233L21.8221 33.5998ZM36.3006 14H16.6994C15.759 14 15 14.7411 15 15.6573V35.3427C15 36.2589 15.759 37 16.6969 37H36.2967C37.2333 37 38 36.2589 38 35.3427V15.6573C38 14.7424 37.2333 14 36.2954 14H36.3006Z" fill="var(--fill-0, white)"/>
</g>
</svg>
