<svg preserveAspectRatio="none" width="100%" height="100%" overflow="visible" style="display: block;" viewBox="0 0 1280 761" fill="none" xmlns="http://www.w3.org/2000/svg">
<g id="Section background">
<g id="Subtract">
<path d="M3.44238 760.259L4 761H0V759.214L1262 3H1267.18L3.44238 760.259Z" fill="var(--fill-0, black)"/>
<path d="M9.18555 761H4L1268.97 3H1274.16L9.18555 761Z" fill="var(--fill-0, black)"/>
<path d="M1280 3.68182L16.165 761H10.9795L1275.96 3H1280V3.68182Z" fill="var(--fill-0, black)"/>
<path d="M1280 7.86514L23.1455 761H17.96L1280 4.7586V7.86514Z" fill="var(--fill-0, black)"/>
<path d="M1280 12.0476L30.125 761H24.9395L1280 8.94106V12.0476Z" fill="var(--fill-0, black)"/>
<path d="M1280 16.2301L37.1055 761H31.9199L1280 13.1235V16.2301Z" fill="var(--fill-0, black)"/>
<path d="M1280 20.4125L44.085 761H38.8994L1280 17.306V20.4125Z" fill="var(--fill-0, black)"/>
<path d="M1280 24.595L51.0654 761H45.8799L1280 21.4884V24.595Z" fill="var(--fill-0, black)"/>
<path d="M1280 28.7774L58.0449 761H52.8594L1280 25.6709V28.7774Z" fill="var(--fill-0, black)"/>
<path d="M1280 32.9599L65.0244 761H59.8389L1280 29.8533V32.9599Z" fill="var(--fill-0, black)"/>
<path d="M1280 37.1423L72.0049 761H66.8193L1280 34.0358V37.1423Z" fill="var(--fill-0, black)"/>
<path d="M1280 41.3248L78.9844 761H73.7988L1280 38.2182V41.3248Z" fill="var(--fill-0, black)"/>
<path d="M1280 45.5072L85.9648 761H80.7793L1280 42.4007V45.5072Z" fill="var(--fill-0, black)"/>
<path d="M1280 49.6897L92.9443 761H87.7588L1280 46.5832V49.6897Z" fill="var(--fill-0, black)"/>
<path d="M1280 53.8721L99.9248 761H94.7393L1280 50.7656V53.8721Z" fill="var(--fill-0, black)"/>
<path d="M1280 58.0546L106.904 761H101.719L1280 54.9481V58.0546Z" fill="var(--fill-0, black)"/>
<path d="M1280 62.2371L113.884 761H108.699L1280 59.1305V62.2371Z" fill="var(--fill-0, black)"/>
<path d="M1280 66.4204L120.864 761H115.679L1280 63.3138V66.4204Z" fill="var(--fill-0, black)"/>
<path d="M1280 70.6028L127.844 761H122.658L1280 67.4963V70.6028Z" fill="var(--fill-0, black)"/>
<path d="M1280 74.7853L134.824 761H129.639L1280 71.6787V74.7853Z" fill="var(--fill-0, black)"/>
<path d="M1280 78.9677L141.804 761H136.618L1280 75.8612V78.9677Z" fill="var(--fill-0, black)"/>
<path d="M1280 83.1502L148.784 761H143.599L1280 80.0437V83.1502Z" fill="var(--fill-0, black)"/>
<path d="M1280 87.3327L155.764 761H150.578L1280 84.2261V87.3327Z" fill="var(--fill-0, black)"/>
<path d="M1280 91.5151L162.743 761H157.559L1280 88.4086V91.5151Z" fill="var(--fill-0, black)"/>
<path d="M1280 95.6976L169.724 761H164.538L1280 92.591V95.6976Z" fill="var(--fill-0, black)"/>
<path d="M1280 99.88L176.703 761H171.518L1280 96.7735V99.88Z" fill="var(--fill-0, black)"/>
<path d="M1280 104.062L183.684 761H178.498L1280 100.956V104.062Z" fill="var(--fill-0, black)"/>
<path d="M1280 108.245L190.663 761H185.478L1280 105.138V108.245Z" fill="var(--fill-0, black)"/>
<path d="M1280 112.427L197.644 761H192.458L1280 109.321V112.427Z" fill="var(--fill-0, black)"/>
<path d="M1280 116.61L204.623 761H199.438L1280 113.503V116.61Z" fill="var(--fill-0, black)"/>
<path d="M1280 120.792L211.604 761H206.418L1280 117.686V120.792Z" fill="var(--fill-0, black)"/>
<path d="M1280 124.976L218.583 761H213.397L1280 121.869V124.976Z" fill="var(--fill-0, black)"/>
<path d="M1280 129.158L225.562 761H220.378L1280 126.052V129.158Z" fill="var(--fill-0, black)"/>
<path d="M1280 133.341L232.543 761H227.357L1280 130.234V133.341Z" fill="var(--fill-0, black)"/>
<path d="M1280 137.523L239.522 761H234.337L1280 134.416V137.523Z" fill="var(--fill-0, black)"/>
<path d="M1280 141.705L246.503 761H241.317L1280 138.599V141.705Z" fill="var(--fill-0, black)"/>
<path d="M1280 145.888L253.482 761H248.297L1280 142.781V145.888Z" fill="var(--fill-0, black)"/>
<path d="M1280 150.07L260.463 761H255.277L1280 146.964V150.07Z" fill="var(--fill-0, black)"/>
<path d="M1280 154.253L267.442 761H262.257L1280 151.146V154.253Z" fill="var(--fill-0, black)"/>
<path d="M1280 158.435L274.422 761H269.237L1280 155.329V158.435Z" fill="var(--fill-0, black)"/>
<path d="M1280 162.618L281.402 761H276.217L1280 159.511V162.618Z" fill="var(--fill-0, black)"/>
<path d="M1280 166.8L288.382 761H283.196L1280 163.694V166.8Z" fill="var(--fill-0, black)"/>
<path d="M1280 170.983L295.362 761H290.177L1280 167.876V170.983Z" fill="var(--fill-0, black)"/>
<path d="M1280 175.165L302.342 761H297.156L1280 172.059V175.165Z" fill="var(--fill-0, black)"/>
<path d="M1280 179.348L309.322 761H304.137L1280 176.241V179.348Z" fill="var(--fill-0, black)"/>
<path d="M1280 183.531L316.302 761H311.116L1280 180.423V183.531Z" fill="var(--fill-0, black)"/>
<path d="M1280 187.713L323.281 761H318.097L1280 184.607V187.713Z" fill="var(--fill-0, black)"/>
<path d="M1280 191.896L330.262 761H325.076L1280 188.789V191.896Z" fill="var(--fill-0, black)"/>
<path d="M1280 196.078L337.241 761H332.056L1280 192.972V196.078Z" fill="var(--fill-0, black)"/>
<path d="M1280 200.261L344.222 761H339.036L1280 197.154V200.261Z" fill="var(--fill-0, black)"/>
<path d="M1280 204.443L351.201 761H346.016L1280 201.337V204.443Z" fill="var(--fill-0, black)"/>
<path d="M1280 208.626L358.182 761H352.996L1280 205.519V208.626Z" fill="var(--fill-0, black)"/>
<path d="M1280 212.808L365.161 761H359.976L1280 209.702V212.808Z" fill="var(--fill-0, black)"/>
<path d="M1280 216.991L372.141 761H366.956L1280 213.884V216.991Z" fill="var(--fill-0, black)"/>
<path d="M1280 221.173L379.121 761H373.936L1280 218.066V221.173Z" fill="var(--fill-0, black)"/>
<path d="M1280 225.355L386.101 761H380.916L1280 222.249V225.355Z" fill="var(--fill-0, black)"/>
<path d="M1280 229.538L393.081 761H387.896L1280 226.431V229.538Z" fill="var(--fill-0, black)"/>
<path d="M1280 233.72L400.061 761H394.875L1280 230.614V233.72Z" fill="var(--fill-0, black)"/>
<path d="M1280 237.904L407.041 761H401.855L1280 234.796V237.904Z" fill="var(--fill-0, black)"/>
<path d="M1280 242.086L414.021 761H408.835L1280 238.979V242.086Z" fill="var(--fill-0, black)"/>
<path d="M1280 246.269L421.001 761H415.815L1280 243.162V246.269Z" fill="var(--fill-0, black)"/>
<path d="M1280 250.451L427.98 761H422.795L1280 247.344V250.451Z" fill="var(--fill-0, black)"/>
<path d="M1280 254.633L434.96 761H429.775L1280 251.527V254.633Z" fill="var(--fill-0, black)"/>
<path d="M1280 258.816L441.94 761H436.755L1280 255.709V258.816Z" fill="var(--fill-0, black)"/>
<path d="M1280 262.998L448.92 761H443.734L1280 259.892V262.998Z" fill="var(--fill-0, black)"/>
<path d="M1280 267.181L455.9 761H450.715L1280 264.074V267.181Z" fill="var(--fill-0, black)"/>
<path d="M1280 271.363L462.88 761H457.694L1280 268.257V271.363Z" fill="var(--fill-0, black)"/>
<path d="M1280 275.546L469.86 761H464.675L1280 272.439V275.546Z" fill="var(--fill-0, black)"/>
<path d="M1280 279.728L476.84 761H471.654L1280 276.622V279.728Z" fill="var(--fill-0, black)"/>
<path d="M1280 283.911L483.819 761H478.635L1280 280.804V283.911Z" fill="var(--fill-0, black)"/>
<path d="M1280 288.093L490.8 761H485.614L1280 284.987V288.093Z" fill="var(--fill-0, black)"/>
<path d="M1280 292.276L497.779 761H492.595L1280 289.169V292.276Z" fill="var(--fill-0, black)"/>
<path d="M1280 296.459L504.76 761H499.574L1280 293.351V296.459Z" fill="var(--fill-0, black)"/>
<path d="M1280 300.641L511.739 761H506.554L1280 297.534V300.641Z" fill="var(--fill-0, black)"/>
<path d="M1280 304.824L518.72 761H513.534L1280 301.716V304.824Z" fill="var(--fill-0, black)"/>
<path d="M1280 309.006L525.699 761H520.514L1280 305.9V309.006Z" fill="var(--fill-0, black)"/>
<path d="M1280 313.189L532.679 761H527.494L1280 310.082V313.189Z" fill="var(--fill-0, black)"/>
<path d="M1280 317.371L539.659 761H534.474L1280 314.265V317.371Z" fill="var(--fill-0, black)"/>
<path d="M1280 321.554L546.639 761H541.454L1280 318.447V321.554Z" fill="var(--fill-0, black)"/>
<path d="M1280 325.736L553.619 761H548.434L1280 322.63V325.736Z" fill="var(--fill-0, black)"/>
<path d="M1280 329.919L560.599 761H555.413L1280 326.812V329.919Z" fill="var(--fill-0, black)"/>
<path d="M1280 334.101L567.579 761H562.394L1280 330.994V334.101Z" fill="var(--fill-0, black)"/>
<path d="M1280 338.283L574.559 761H569.373L1280 335.177V338.283Z" fill="var(--fill-0, black)"/>
<path d="M1280 342.466L581.538 761H576.354L1280 339.359V342.466Z" fill="var(--fill-0, black)"/>
<path d="M1280 346.648L588.519 761H583.333L1280 343.542V346.648Z" fill="var(--fill-0, black)"/>
<path d="M1280 350.831L595.498 761H590.313L1280 347.724V350.831Z" fill="var(--fill-0, black)"/>
<path d="M1280 355.014L602.479 761H597.293L1280 351.907V355.014Z" fill="var(--fill-0, black)"/>
<path d="M1280 359.197L609.458 761H604.272L1280 356.089V359.197Z" fill="var(--fill-0, black)"/>
<path d="M1280 363.379L616.438 761H611.253L1280 360.272V363.379Z" fill="var(--fill-0, black)"/>
<path d="M1280 367.561L623.418 761H618.232L1280 364.455V367.561Z" fill="var(--fill-0, black)"/>
<path d="M1280 371.744L630.397 761H625.213L1280 368.637V371.744Z" fill="var(--fill-0, black)"/>
<path d="M1280 375.926L637.378 761H632.192L1280 372.82V375.926Z" fill="var(--fill-0, black)"/>
<path d="M1280 380.109L644.357 761H639.173L1280 377.002V380.109Z" fill="var(--fill-0, black)"/>
<path d="M1280 384.291L651.338 761H646.152L1280 381.185V384.291Z" fill="var(--fill-0, black)"/>
<path d="M1280 388.474L658.317 761H653.133L1280 385.367V388.474Z" fill="var(--fill-0, black)"/>
<path d="M1280 392.656L665.298 761H660.112L1280 389.55V392.656Z" fill="var(--fill-0, black)"/>
<path d="M1280 396.839L672.277 761H667.092L1280 393.732V396.839Z" fill="var(--fill-0, black)"/>
<path d="M1280 401.021L679.258 761H674.072L1280 397.915V401.021Z" fill="var(--fill-0, black)"/>
<path d="M1280 405.204L686.237 761H681.052L1280 402.097V405.204Z" fill="var(--fill-0, black)"/>
<path d="M1280 409.386L693.217 761H688.032L1280 406.279V409.386Z" fill="var(--fill-0, black)"/>
<path d="M1280 413.569L700.197 761H695.012L1280 410.462V413.569Z" fill="var(--fill-0, black)"/>
<path d="M1280 417.752L707.177 761H701.992L1280 414.644V417.752Z" fill="var(--fill-0, black)"/>
<path d="M1280 421.934L714.157 761H708.972L1280 418.827V421.934Z" fill="var(--fill-0, black)"/>
<path d="M1280 426.117L721.137 761H715.951L1280 423.009V426.117Z" fill="var(--fill-0, black)"/>
<path d="M1280 430.299L728.117 761H722.932L1280 427.193V430.299Z" fill="var(--fill-0, black)"/>
<path d="M1280 434.482L735.097 761H729.911L1280 431.375V434.482Z" fill="var(--fill-0, black)"/>
<path d="M1280 438.664L742.076 761H736.892L1280 435.558V438.664Z" fill="var(--fill-0, black)"/>
<path d="M1280 442.847L749.057 761H743.871L1280 439.74V442.847Z" fill="var(--fill-0, black)"/>
<path d="M1280 447.029L756.036 761H750.852L1280 443.922V447.029Z" fill="var(--fill-0, black)"/>
<path d="M1280 451.211L763.017 761H757.831L1280 448.105V451.211Z" fill="var(--fill-0, black)"/>
<path d="M1280 455.394L769.996 761H764.811L1280 452.287V455.394Z" fill="var(--fill-0, black)"/>
<path d="M1280 459.576L776.977 761H771.791L1280 456.47V459.576Z" fill="var(--fill-0, black)"/>
<path d="M1280 463.759L783.956 761H778.771L1280 460.652V463.759Z" fill="var(--fill-0, black)"/>
<path d="M1280 467.941L790.936 761H785.751L1280 464.835V467.941Z" fill="var(--fill-0, black)"/>
<path d="M1280 472.125L797.916 761H792.73L1280 469.017V472.125Z" fill="var(--fill-0, black)"/>
<path d="M1280 476.307L804.896 761H799.711L1280 473.2V476.307Z" fill="var(--fill-0, black)"/>
<path d="M1280 480.49L811.876 761H806.69L1280 477.382V480.49Z" fill="var(--fill-0, black)"/>
<path d="M1280 484.672L818.855 761H813.671L1280 481.565V484.672Z" fill="var(--fill-0, black)"/>
<path d="M1280 488.854L825.836 761H820.65L1280 485.748V488.854Z" fill="var(--fill-0, black)"/>
<path d="M1280 493.037L832.815 761H827.63L1280 489.93V493.037Z" fill="var(--fill-0, black)"/>
<path d="M1280 497.219L839.795 761H834.61L1280 494.113V497.219Z" fill="var(--fill-0, black)"/>
<path d="M1280 501.402L846.775 761H841.59L1280 498.295V501.402Z" fill="var(--fill-0, black)"/>
<path d="M1280 505.584L853.755 761H848.57L1280 502.478V505.584Z" fill="var(--fill-0, black)"/>
<path d="M1280 509.767L860.735 761H855.55L1280 506.66V509.767Z" fill="var(--fill-0, black)"/>
<path d="M1280 513.949L867.715 761H862.53L1280 510.843V513.949Z" fill="var(--fill-0, black)"/>
<path d="M1280 518.132L874.695 761H869.51L1280 515.025V518.132Z" fill="var(--fill-0, black)"/>
<path d="M1280 522.314L881.675 761H876.489L1280 519.208V522.314Z" fill="var(--fill-0, black)"/>
<path d="M1280 526.497L888.654 761H883.47L1280 523.39V526.497Z" fill="var(--fill-0, black)"/>
<path d="M1280 530.68L895.635 761H890.449L1280 527.572V530.68Z" fill="var(--fill-0, black)"/>
<path d="M1280 534.862L902.614 761H897.43L1280 531.755V534.862Z" fill="var(--fill-0, black)"/>
<path d="M1280 539.045L909.595 761H904.409L1280 535.937V539.045Z" fill="var(--fill-0, black)"/>
<path d="M1280 543.227L916.574 761H911.39L1280 540.12V543.227Z" fill="var(--fill-0, black)"/>
<path d="M1280 547.41L923.555 761H918.369L1280 544.302V547.41Z" fill="var(--fill-0, black)"/>
<path d="M1280 551.592L930.534 761H925.35L1280 548.486V551.592Z" fill="var(--fill-0, black)"/>
<path d="M1280 555.775L937.515 761H932.329L1280 552.668V555.775Z" fill="var(--fill-0, black)"/>
<path d="M1280 559.957L944.494 761H939.309L1280 556.85V559.957Z" fill="var(--fill-0, black)"/>
<path d="M1280 564.139L951.474 761H946.289L1280 561.033V564.139Z" fill="var(--fill-0, black)"/>
<path d="M1280 568.322L958.454 761H953.269L1280 565.215V568.322Z" fill="var(--fill-0, black)"/>
<path d="M1280 572.504L965.434 761H960.249L1280 569.398V572.504Z" fill="var(--fill-0, black)"/>
<path d="M1280 576.687L972.414 761H967.229L1280 573.58V576.687Z" fill="var(--fill-0, black)"/>
<path d="M1280 580.869L979.394 761H974.209L1280 577.763V580.869Z" fill="var(--fill-0, black)"/>
<path d="M1280 585.052L986.374 761H981.188L1280 581.945V585.052Z" fill="var(--fill-0, black)"/>
<path d="M1280 589.235L993.354 761H988.168L1280 586.128V589.235Z" fill="var(--fill-0, black)"/>
<path d="M1280 593.418L1000.33 761H995.148L1280 590.31V593.418Z" fill="var(--fill-0, black)"/>
<path d="M1280 597.6L1007.31 761H1002.13L1280 594.493V597.6Z" fill="var(--fill-0, black)"/>
<path d="M1280 601.782L1014.29 761H1009.11L1280 598.675V601.782Z" fill="var(--fill-0, black)"/>
<path d="M1280 605.965L1021.27 761H1016.09L1280 602.857V605.965Z" fill="var(--fill-0, black)"/>
<path d="M1280 610.147L1028.25 761H1023.07L1280 607.041V610.147Z" fill="var(--fill-0, black)"/>
<path d="M1280 614.33L1035.23 761H1030.05L1280 611.223V614.33Z" fill="var(--fill-0, black)"/>
<path d="M1280 618.512L1042.21 761H1037.03L1280 615.406V618.512Z" fill="var(--fill-0, black)"/>
<path d="M1280 622.695L1049.19 761H1044.01L1280 619.588V622.695Z" fill="var(--fill-0, black)"/>
<path d="M1280 626.877L1056.17 761H1050.99L1280 623.771V626.877Z" fill="var(--fill-0, black)"/>
<path d="M1280 631.06L1063.15 761H1057.97L1280 627.953V631.06Z" fill="var(--fill-0, black)"/>
<path d="M1280 635.242L1070.13 761H1064.95L1280 632.136V635.242Z" fill="var(--fill-0, black)"/>
<path d="M1280 639.425L1077.11 761H1071.93L1280 636.318V639.425Z" fill="var(--fill-0, black)"/>
<path d="M1280 643.607L1084.09 761H1078.91L1280 640.5V643.607Z" fill="var(--fill-0, black)"/>
<path d="M1280 647.79L1091.07 761H1085.89L1280 644.683V647.79Z" fill="var(--fill-0, black)"/>
<path d="M1280 651.973L1098.05 761H1092.87L1280 648.865V651.973Z" fill="var(--fill-0, black)"/>
<path d="M1280 656.155L1105.03 761H1099.85L1280 653.048V656.155Z" fill="var(--fill-0, black)"/>
<path d="M1280 660.338L1112.01 761H1106.83L1280 657.23V660.338Z" fill="var(--fill-0, black)"/>
<path d="M1280 664.52L1118.99 761H1113.81L1280 661.413V664.52Z" fill="var(--fill-0, black)"/>
<path d="M1280 668.703L1125.97 761H1120.79L1280 665.595V668.703Z" fill="var(--fill-0, black)"/>
<path d="M1280 672.885L1132.95 761H1127.77L1280 669.778V672.885Z" fill="var(--fill-0, black)"/>
<path d="M1280 677.067L1139.93 761H1134.75L1280 673.961V677.067Z" fill="var(--fill-0, black)"/>
<path d="M1280 681.25L1146.91 761H1141.73L1280 678.143V681.25Z" fill="var(--fill-0, black)"/>
<path d="M1280 685.432L1153.89 761H1148.71L1280 682.326V685.432Z" fill="var(--fill-0, black)"/>
<path d="M1280 689.615L1160.87 761H1155.69L1280 686.508V689.615Z" fill="var(--fill-0, black)"/>
<path d="M1280 693.797L1167.85 761H1162.67L1280 690.691V693.797Z" fill="var(--fill-0, black)"/>
<path d="M1280 697.98L1174.83 761H1169.65L1280 694.873V697.98Z" fill="var(--fill-0, black)"/>
<path d="M1280 702.162L1181.81 761H1176.63L1280 699.056V702.162Z" fill="var(--fill-0, black)"/>
<path d="M1280 706.346L1188.79 761H1183.61L1280 703.238V706.346Z" fill="var(--fill-0, black)"/>
<path d="M1280 710.528L1195.77 761H1190.59L1280 707.421V710.528Z" fill="var(--fill-0, black)"/>
<path d="M1280 714.71L1202.75 761H1197.57L1280 711.603V714.71Z" fill="var(--fill-0, black)"/>
<path d="M1280 718.893L1209.73 761H1204.55L1280 715.786V718.893Z" fill="var(--fill-0, black)"/>
<path d="M1280 723.075L1216.71 761H1211.53L1280 719.968V723.075Z" fill="var(--fill-0, black)"/>
<path d="M1280 727.258L1223.69 761H1218.51L1280 724.15V727.258Z" fill="var(--fill-0, black)"/>
<path d="M1280 731.44L1230.67 761H1225.49L1280 728.334V731.44Z" fill="var(--fill-0, black)"/>
<path d="M1280 735.623L1237.65 761H1232.47L1280 732.516V735.623Z" fill="var(--fill-0, black)"/>
<path d="M1280 739.805L1244.63 761H1239.45L1280 736.699V739.805Z" fill="var(--fill-0, black)"/>
<path d="M1280 743.988L1251.61 761H1246.43L1280 740.881V743.988Z" fill="var(--fill-0, black)"/>
<path d="M1280 748.17L1258.59 761H1253.41L1280 745.064V748.17Z" fill="var(--fill-0, black)"/>
<path d="M1280 752.353L1265.57 761H1260.38L1280 749.246V752.353Z" fill="var(--fill-0, black)"/>
<path d="M1280 756.535L1272.55 761H1267.37L1280 753.428V756.535Z" fill="var(--fill-0, black)"/>
<path d="M1280 760.717L1279.53 761H1274.34L1280 757.611V760.717Z" fill="var(--fill-0, black)"/>
<path d="M0 758.138V755.031L1255.02 3H1260.2L0 758.138Z" fill="var(--fill-0, black)"/>
<path d="M0 753.956V750.849L1248.04 3H1253.22L0 753.956Z" fill="var(--fill-0, black)"/>
<path d="M0 749.773V746.666L1241.06 3H1246.24L0 749.773Z" fill="var(--fill-0, black)"/>
<path d="M0 745.591V742.484L1234.08 3H1239.26L0 745.591Z" fill="var(--fill-0, black)"/>
<path d="M0 741.409V738.301L1227.1 3H1232.28L0 741.409Z" fill="var(--fill-0, black)"/>
<path d="M0 737.226V734.119L1220.12 3H1225.3L0 737.226Z" fill="var(--fill-0, black)"/>
<path d="M0 733.044V729.936L1213.14 3H1218.32L0 733.044Z" fill="var(--fill-0, black)"/>
<path d="M0 728.861V725.754L1206.16 3H1211.34L0 728.861Z" fill="var(--fill-0, black)"/>
<path d="M0 724.679V721.571L1199.18 3H1204.36L0 724.679Z" fill="var(--fill-0, black)"/>
<path d="M0 720.496V717.389L1192.2 3H1197.38L0 720.496Z" fill="var(--fill-0, black)"/>
<path d="M0 716.314V713.206L1185.22 3H1190.4L0 716.314Z" fill="var(--fill-0, black)"/>
<path d="M0 712.131V709.024L1178.24 3H1183.42L0 712.131Z" fill="var(--fill-0, black)"/>
<path d="M0 707.948V704.842L1171.26 3H1176.44L0 707.948Z" fill="var(--fill-0, black)"/>
<path d="M0 703.766V700.659L1164.28 3H1169.46L0 703.766Z" fill="var(--fill-0, black)"/>
<path d="M0 699.583V696.476L1157.3 3H1162.48L0 699.583Z" fill="var(--fill-0, black)"/>
<path d="M0 695.401V692.293L1150.32 3H1155.5L0 695.401Z" fill="var(--fill-0, black)"/>
<path d="M0 691.218V688.111L1143.34 3H1148.52L0 691.218Z" fill="var(--fill-0, black)"/>
<path d="M0 687.036V683.928L1136.36 3H1141.54L0 687.036Z" fill="var(--fill-0, black)"/>
<path d="M0 682.853V679.746L1129.38 3H1134.56L0 682.853Z" fill="var(--fill-0, black)"/>
<path d="M0 678.671V675.564L1122.4 3H1127.58L0 678.671Z" fill="var(--fill-0, black)"/>
<path d="M0 674.488V671.381L1115.42 3H1120.6L0 674.488Z" fill="var(--fill-0, black)"/>
<path d="M0 670.306V667.199L1108.44 3H1113.62L0 670.306Z" fill="var(--fill-0, black)"/>
<path d="M0 666.124V663.016L1101.46 3H1106.64L0 666.124Z" fill="var(--fill-0, black)"/>
<path d="M0 661.941V658.834L1094.48 3H1099.66L0 661.941Z" fill="var(--fill-0, black)"/>
<path d="M0 657.759V654.651L1087.5 3H1092.68L0 657.759Z" fill="var(--fill-0, black)"/>
<path d="M0 653.575V650.469L1080.52 3H1085.7L0 653.575Z" fill="var(--fill-0, black)"/>
<path d="M0 649.393V646.286L1073.54 3H1078.72L0 649.393Z" fill="var(--fill-0, black)"/>
<path d="M0 645.21V642.104L1066.56 3H1071.74L0 645.21Z" fill="var(--fill-0, black)"/>
<path d="M0 641.028V637.921L1059.58 3H1064.76L0 641.028Z" fill="var(--fill-0, black)"/>
<path d="M0 636.845V633.738L1052.6 3H1057.78L0 636.845Z" fill="var(--fill-0, black)"/>
<path d="M0 632.663V629.556L1045.62 3H1050.8L0 632.663Z" fill="var(--fill-0, black)"/>
<path d="M0 628.481V625.373L1038.64 3H1043.82L0 628.481Z" fill="var(--fill-0, black)"/>
<path d="M0 624.298V621.191L1031.66 3H1036.84L0 624.298Z" fill="var(--fill-0, black)"/>
<path d="M0 620.116V617.008L1024.68 3H1029.86L0 620.116Z" fill="var(--fill-0, black)"/>
<path d="M0 615.933V612.826L1017.7 3H1022.88L0 615.933Z" fill="var(--fill-0, black)"/>
<path d="M0 611.751V608.643L1010.72 3H1015.9L0 611.751Z" fill="var(--fill-0, black)"/>
<path d="M0 607.568V604.461L1003.74 3H1008.92L0 607.568Z" fill="var(--fill-0, black)"/>
<path d="M0 603.386V600.278L996.758 3H1001.94L0 603.386Z" fill="var(--fill-0, black)"/>
<path d="M0 599.203V596.096L989.778 3H994.963L0 599.203Z" fill="var(--fill-0, black)"/>
<path d="M0 595.02V591.914L982.799 3H987.982L0 595.02Z" fill="var(--fill-0, black)"/>
<path d="M0 590.838V587.731L975.818 3H981.003L0 590.838Z" fill="var(--fill-0, black)"/>
<path d="M0 586.655V583.549L968.839 3H974.023L0 586.655Z" fill="var(--fill-0, black)"/>
<path d="M0 582.473V579.366L961.858 3H967.043L0 582.473Z" fill="var(--fill-0, black)"/>
<path d="M0 578.29V575.183L954.879 3H960.063L0 578.29Z" fill="var(--fill-0, black)"/>
<path d="M0 574.108V571L947.898 3H953.083L0 574.108Z" fill="var(--fill-0, black)"/>
<path d="M0 569.925V566.818L940.919 3H946.104L0 569.925Z" fill="var(--fill-0, black)"/>
<path d="M0 565.743V562.635L933.939 3H939.123L0 565.743Z" fill="var(--fill-0, black)"/>
<path d="M0 561.56V558.453L926.959 3H932.144L0 561.56Z" fill="var(--fill-0, black)"/>
<path d="M0 557.378V554.271L919.979 3H925.164L0 557.378Z" fill="var(--fill-0, black)"/>
<path d="M0 553.195V550.088L912.999 3H918.184L0 553.195Z" fill="var(--fill-0, black)"/>
<path d="M0 549.013V545.906L906.02 3H911.204L0 549.013Z" fill="var(--fill-0, black)"/>
<path d="M0 544.831V541.723L899.039 3H904.224L0 544.831Z" fill="var(--fill-0, black)"/>
<path d="M0 540.648V537.541L892.06 3H897.244L0 540.648Z" fill="var(--fill-0, black)"/>
<path d="M0 536.465V533.358L885.08 3H890.264L0 536.465Z" fill="var(--fill-0, black)"/>
<path d="M0 532.282V529.176L878.1 3H883.284L0 532.282Z" fill="var(--fill-0, black)"/>
<path d="M0 528.1V524.993L871.12 3H876.305L0 528.1Z" fill="var(--fill-0, black)"/>
<path d="M0 523.917V520.811L864.14 3H869.324L0 523.917Z" fill="var(--fill-0, black)"/>
<path d="M0 519.735V516.628L857.16 3H862.345L0 519.735Z" fill="var(--fill-0, black)"/>
<path d="M0 515.553V512.445L850.18 3H855.364L0 515.553Z" fill="var(--fill-0, black)"/>
<path d="M0 511.37V508.263L843.2 3H848.385L0 511.37Z" fill="var(--fill-0, black)"/>
<path d="M0 507.188V504.08L836.22 3H841.404L0 507.188Z" fill="var(--fill-0, black)"/>
<path d="M0 503.005V499.898L829.24 3H834.425L0 503.005Z" fill="var(--fill-0, black)"/>
<path d="M0 498.823V495.715L822.261 3H827.444L0 498.823Z" fill="var(--fill-0, black)"/>
<path d="M0 494.64V491.533L815.28 3H820.465L0 494.64Z" fill="var(--fill-0, black)"/>
<path d="M0 490.458V487.35L808.301 3H813.485L0 490.458Z" fill="var(--fill-0, black)"/>
<path d="M0 486.275V483.168L801.32 3H806.505L0 486.275Z" fill="var(--fill-0, black)"/>
<path d="M0 482.093V478.986L794.341 3H799.525L0 482.093Z" fill="var(--fill-0, black)"/>
<path d="M0 477.91V474.803L787.36 3H792.545L0 477.91Z" fill="var(--fill-0, black)"/>
<path d="M0 473.727V470.621L780.381 3H785.565L0 473.727Z" fill="var(--fill-0, black)"/>
<path d="M0 469.545V466.438L773.401 3H778.585L0 469.545Z" fill="var(--fill-0, black)"/>
<path d="M0 465.362V462.256L766.421 3H771.605L0 465.362Z" fill="var(--fill-0, black)"/>
<path d="M0 461.18V458.073L759.441 3H764.626L0 461.18Z" fill="var(--fill-0, black)"/>
<path d="M0 456.997V453.89L752.461 3H757.646L0 456.997Z" fill="var(--fill-0, black)"/>
<path d="M0 452.815V449.707L745.481 3H750.666L0 452.815Z" fill="var(--fill-0, black)"/>
<path d="M0 448.632V445.525L738.501 3H743.686L0 448.632Z" fill="var(--fill-0, black)"/>
<path d="M0 444.45V441.343L731.521 3H736.706L0 444.45Z" fill="var(--fill-0, black)"/>
<path d="M0 440.267V437.16L724.541 3H729.726L0 440.267Z" fill="var(--fill-0, black)"/>
<path d="M0 436.085V432.978L717.562 3H722.746L0 436.085Z" fill="var(--fill-0, black)"/>
<path d="M0 431.903V428.795L710.582 3H715.767L0 431.903Z" fill="var(--fill-0, black)"/>
<path d="M0 427.72V424.613L703.602 3H708.786L0 427.72Z" fill="var(--fill-0, black)"/>
<path d="M0 423.538V420.43L696.622 3H701.807L0 423.538Z" fill="var(--fill-0, black)"/>
<path d="M0 419.354V416.248L689.642 3H694.826L0 419.354Z" fill="var(--fill-0, black)"/>
<path d="M0 415.172V412.065L682.662 3H687.847L0 415.172Z" fill="var(--fill-0, black)"/>
<path d="M0 410.989V407.883L675.682 3H680.866L0 410.989Z" fill="var(--fill-0, black)"/>
<path d="M0 406.807V403.7L668.702 3H673.887L0 406.807Z" fill="var(--fill-0, black)"/>
<path d="M0 402.625V399.518L661.723 3H666.907L0 402.625Z" fill="var(--fill-0, black)"/>
<path d="M0 398.442V395.335L654.742 3H659.927L0 398.442Z" fill="var(--fill-0, black)"/>
<path d="M0 394.26V391.152L647.763 3H652.947L0 394.26Z" fill="var(--fill-0, black)"/>
<path d="M0 390.077V386.97L640.782 3H645.967L0 390.077Z" fill="var(--fill-0, black)"/>
<path d="M0 385.895V382.787L633.803 3H638.987L0 385.895Z" fill="var(--fill-0, black)"/>
<path d="M0 381.712V378.605L626.822 3H632.007L0 381.712Z" fill="var(--fill-0, black)"/>
<path d="M0 377.53V374.422L619.843 3H625.027L0 377.53Z" fill="var(--fill-0, black)"/>
<path d="M0 373.347V370.24L612.863 3H618.047L0 373.347Z" fill="var(--fill-0, black)"/>
<path d="M0 369.165V366.057L605.883 3H611.067L0 369.165Z" fill="var(--fill-0, black)"/>
<path d="M0 364.982V361.875L598.903 3H604.088L0 364.982Z" fill="var(--fill-0, black)"/>
<path d="M0 360.799V357.693L591.923 3H597.107L0 360.799Z" fill="var(--fill-0, black)"/>
<path d="M0 356.617V353.51L584.943 3H590.128L0 356.617Z" fill="var(--fill-0, black)"/>
<path d="M0 352.434V349.328L577.963 3H583.147L0 352.434Z" fill="var(--fill-0, black)"/>
<path d="M0 348.252V345.145L570.983 3H576.168L0 348.252Z" fill="var(--fill-0, black)"/>
<path d="M0 344.069V340.963L564.003 3H569.188L0 344.069Z" fill="var(--fill-0, black)"/>
<path d="M0 339.887V336.78L557.023 3H562.208L0 339.887Z" fill="var(--fill-0, black)"/>
<path d="M0 335.704V332.597L550.044 3H555.229L0 335.704Z" fill="var(--fill-0, black)"/>
<path d="M0 331.522V328.415L543.063 3H548.248L0 331.522Z" fill="var(--fill-0, black)"/>
<path d="M0 327.339V324.232L536.084 3H541.269L0 327.339Z" fill="var(--fill-0, black)"/>
<path d="M0 323.157V320.05L529.104 3H534.288L0 323.157Z" fill="var(--fill-0, black)"/>
<path d="M0 318.975V315.867L522.124 3H527.309L0 318.975Z" fill="var(--fill-0, black)"/>
<path d="M0 314.792V311.685L515.144 3H520.328L0 314.792Z" fill="var(--fill-0, black)"/>
<path d="M0 310.61V307.502L508.164 3H513.349L0 310.61Z" fill="var(--fill-0, black)"/>
<path d="M0 306.427V303.32L501.185 3H506.369L0 306.427Z" fill="var(--fill-0, black)"/>
<path d="M0 302.244V299.137L494.204 3H499.389L0 302.244Z" fill="var(--fill-0, black)"/>
<path d="M0 298.061V294.955L487.225 3H492.409L0 298.061Z" fill="var(--fill-0, black)"/>
<path d="M0 293.879V290.772L480.244 3H485.429L0 293.879Z" fill="var(--fill-0, black)"/>
<path d="M0 289.697V286.59L473.265 3H478.449L0 289.697Z" fill="var(--fill-0, black)"/>
<path d="M0 285.514V282.408L466.284 3H471.469L0 285.514Z" fill="var(--fill-0, black)"/>
<path d="M0 281.332V278.225L459.305 3H464.489L0 281.332Z" fill="var(--fill-0, black)"/>
<path d="M0 277.149V274.042L452.324 3H457.51L0 277.149Z" fill="var(--fill-0, black)"/>
<path d="M0 272.967V269.859L445.345 3H450.529L0 272.967Z" fill="var(--fill-0, black)"/>
<path d="M0 268.784V265.677L438.365 3H443.55L0 268.784Z" fill="var(--fill-0, black)"/>
<path d="M0 264.602V261.494L431.385 3H436.569L0 264.602Z" fill="var(--fill-0, black)"/>
<path d="M0 260.419V257.312L424.405 3H429.59L0 260.419Z" fill="var(--fill-0, black)"/>
<path d="M0 256.237V253.129L417.425 3H422.609L0 256.237Z" fill="var(--fill-0, black)"/>
<path d="M0 252.054V248.947L410.445 3H415.63L0 252.054Z" fill="var(--fill-0, black)"/>
<path d="M0 247.871V244.765L403.465 3H408.65L0 247.871Z" fill="var(--fill-0, black)"/>
<path d="M0 243.689V240.582L396.485 3H401.67L0 243.689Z" fill="var(--fill-0, black)"/>
<path d="M0 239.506V236.4L389.506 3H394.69L0 239.506Z" fill="var(--fill-0, black)"/>
<path d="M0 235.324V232.217L382.525 3H387.71L0 235.324Z" fill="var(--fill-0, black)"/>
<path d="M0 231.141V228.035L375.546 3H380.73L0 231.141Z" fill="var(--fill-0, black)"/>
<path d="M0 226.959V223.852L368.565 3H373.75L0 226.959Z" fill="var(--fill-0, black)"/>
<path d="M0 222.776V219.67L361.586 3H366.771L0 222.776Z" fill="var(--fill-0, black)"/>
<path d="M0 218.594V215.487L354.605 3H359.79L0 218.594Z" fill="var(--fill-0, black)"/>
<path d="M0 214.411V211.304L347.626 3H352.811L0 214.411Z" fill="var(--fill-0, black)"/>
<path d="M0 210.229V207.122L340.646 3H345.831L0 210.229Z" fill="var(--fill-0, black)"/>
<path d="M0 206.047V202.939L333.666 3H338.851L0 206.047Z" fill="var(--fill-0, black)"/>
<path d="M0 201.864V198.757L326.687 3H331.871L0 201.864Z" fill="var(--fill-0, black)"/>
<path d="M0 197.682V194.574L319.706 3H324.891L0 197.682Z" fill="var(--fill-0, black)"/>
<path d="M0 193.499V190.392L312.727 3H317.911L0 193.499Z" fill="var(--fill-0, black)"/>
<path d="M0 189.316V186.209L305.746 3H310.931L0 189.316Z" fill="var(--fill-0, black)"/>
<path d="M0 185.133V182.027L298.767 3H303.951L0 185.133Z" fill="var(--fill-0, black)"/>
<path d="M0 180.951V177.844L291.786 3H296.972L0 180.951Z" fill="var(--fill-0, black)"/>
<path d="M0 176.768V173.662L284.807 3H289.991L0 176.768Z" fill="var(--fill-0, black)"/>
<path d="M0 172.586V169.479L277.827 3H283.012L0 172.586Z" fill="var(--fill-0, black)"/>
<path d="M0 168.404V165.297L270.847 3H276.031L0 168.404Z" fill="var(--fill-0, black)"/>
<path d="M0 164.221V161.115L263.867 3H269.052L0 164.221Z" fill="var(--fill-0, black)"/>
<path d="M0 160.039V156.932L256.887 3H262.071L0 160.039Z" fill="var(--fill-0, black)"/>
<path d="M0 155.856V152.749L249.907 3H255.092L0 155.856Z" fill="var(--fill-0, black)"/>
<path d="M0 151.674V148.566L242.927 3H248.112L0 151.674Z" fill="var(--fill-0, black)"/>
<path d="M0 147.491V144.384L235.947 3H241.132L0 147.491Z" fill="var(--fill-0, black)"/>
<path d="M0 143.309V140.201L228.968 3H234.152L0 143.309Z" fill="var(--fill-0, black)"/>
<path d="M0 139.126V136.019L221.987 3H227.172L0 139.126Z" fill="var(--fill-0, black)"/>
<path d="M0 134.944V131.837L215.008 3H220.192L0 134.944Z" fill="var(--fill-0, black)"/>
<path d="M0 130.761V127.654L208.027 3H213.212L0 130.761Z" fill="var(--fill-0, black)"/>
<path d="M0 126.578V123.472L201.048 3H206.232L0 126.578Z" fill="var(--fill-0, black)"/>
<path d="M0 122.396V119.289L194.067 3H199.253L0 122.396Z" fill="var(--fill-0, black)"/>
<path d="M0 118.213V115.107L187.088 3H192.272L0 118.213Z" fill="var(--fill-0, black)"/>
<path d="M0 114.031V110.924L180.107 3H185.293L0 114.031Z" fill="var(--fill-0, black)"/>
<path d="M0 109.848V106.742L173.128 3H178.312L0 109.848Z" fill="var(--fill-0, black)"/>
<path d="M0 105.666V102.559L166.148 3H171.333L0 105.666Z" fill="var(--fill-0, black)"/>
<path d="M0 101.483V98.3769L159.168 3H164.353L0 101.483Z" fill="var(--fill-0, black)"/>
<path d="M0 97.301V94.1936L152.188 3H157.373L0 97.301Z" fill="var(--fill-0, black)"/>
<path d="M0 93.1185V90.0111L145.208 3H150.393L0 93.1185Z" fill="var(--fill-0, black)"/>
<path d="M0 88.9361V85.8286L138.229 3H143.413L0 88.9361Z" fill="var(--fill-0, black)"/>
<path d="M0 84.7536V81.6462L131.248 3H136.434L0 84.7536Z" fill="var(--fill-0, black)"/>
<path d="M0 80.5711V77.4637L124.269 3H129.453L0 80.5711Z" fill="var(--fill-0, black)"/>
<path d="M0 76.3887V73.2813L117.289 3H122.474L0 76.3887Z" fill="var(--fill-0, black)"/>
<path d="M0 72.2054V69.0988L110.309 3H115.493L0 72.2054Z" fill="var(--fill-0, black)"/>
<path d="M0 68.0229V64.9164L103.329 3H108.514L0 68.0229Z" fill="var(--fill-0, black)"/>
<path d="M0 63.8405V60.7339L96.3486 3H101.533L0 63.8405Z" fill="var(--fill-0, black)"/>
<path d="M0 59.658V56.5515L89.3691 3H94.5537L0 59.658Z" fill="var(--fill-0, black)"/>
<path d="M0 55.4756V52.369L82.3887 3H87.5742L0 55.4756Z" fill="var(--fill-0, black)"/>
<path d="M0 51.2931V48.1866L75.4092 3H80.5938L0 51.2931Z" fill="var(--fill-0, black)"/>
<path d="M0 47.1106V44.0041L68.4297 3H73.6143L0 47.1106Z" fill="var(--fill-0, black)"/>
<path d="M0 42.9282V39.8216L61.4492 3H66.6338L0 42.9282Z" fill="var(--fill-0, black)"/>
<path d="M0 38.7457V35.6392L54.4697 3H59.6543L0 38.7457Z" fill="var(--fill-0, black)"/>
<path d="M0 34.5633V31.4559L47.4893 3H52.6738L0 34.5633Z" fill="var(--fill-0, black)"/>
<path d="M0 30.3808V27.2734L40.5098 3H45.6943L0 30.3808Z" fill="var(--fill-0, black)"/>
<path d="M0 26.1984V23.091L33.5293 3H38.7148L0 26.1984Z" fill="var(--fill-0, black)"/>
<path d="M0 22.0159V18.9085L26.5498 3H31.7344L0 22.0159Z" fill="var(--fill-0, black)"/>
<path d="M0 17.8335V14.726L19.5693 3H24.7549L0 17.8335Z" fill="var(--fill-0, black)"/>
<path d="M0 13.6501V10.5436L12.5898 3H17.7744L0 13.6501Z" fill="var(--fill-0, black)"/>
<path d="M0 9.46768V6.36113L5.61035 3H10.7949L0 9.46768Z" fill="var(--fill-0, black)"/>
<path d="M0 5.28522V3H3.81445L0 5.28522Z" fill="var(--fill-0, black)"/>
</g>
<path id="backgrond" d="M1128.5 0.5V760.5H149.5V0.5H1128.5Z" fill="var(--fill-0, #09090B)" stroke="var(--stroke-0, #212123)"/>
</g>
</svg>
