<svg preserveAspectRatio="none" width="100%" height="100%" overflow="visible" style="display: block;" viewBox="0 0 88.0001 148.5" fill="none" xmlns="http://www.w3.org/2000/svg">
<path id="Subtract" d="M83.4499 2.71266e-06C86.5474 2.71266e-06 85.662 -0.00555892 88.0001 0.486975V51.0679C86.0651 49.8691 83.4801 48.9193 80.2423 48.221C77.0326 47.3077 73.6425 46.8511 70.0762 46.8511C66.154 46.8513 62.4982 47.5787 59.1108 49.0398C55.7229 50.3184 52.8717 52.2407 50.5537 54.7978C48.2362 57.3545 46.3641 60.3666 44.9378 63.8362C43.6896 67.3068 43.0623 71.2361 43.0623 75.6199V148.5H0V3.01281H40.654L41.5264 25.1567C42.5758 23.4751 43.7162 21.8467 44.9378 20.2709C49.9303 14.0614 55.7266 9.13257 62.3236 5.47978C68.9205 1.82712 75.9616 0.000342794 83.4499 2.71266e-06Z" fill="var(--fill-0, white)"/>
</svg>
